<?xml version="1.0" encoding="UTF-8"?>
<svg xmlns="http://www.w3.org/2000/svg" xmlns:xlink="http://www.w3.org/1999/xlink" width="375pt" height="374.999991pt" viewBox="0 0 375 374.999991" version="1.2">
<g id="surface1">
<path style=" stroke:none;fill-rule:nonzero;fill:rgb(76.078796%,26.269531%,52.938843%);fill-opacity:1;" d="M 252.664062 59.351562 C 231.355469 55.847656 200.617188 61.804688 195.378906 87.742188 C 193.980469 95.101562 192.933594 102.460938 192.234375 109.820312 C 191.1875 115.78125 186.996094 115.78125 186.996094 115.78125 L 186.996094 154.683594 C 214.941406 154.683594 230.308594 142.765625 234.851562 125.242188 C 237.296875 114.027344 234.851562 102.460938 227.515625 93.347656 L 228.5625 92.296875 C 228.5625 92.296875 248.472656 108.417969 265.238281 93 C 279.910156 80.730469 283.402344 70.917969 283.402344 70.917969 C 273.972656 64.960938 263.492188 61.105469 252.664062 59.351562 Z M 252.664062 59.351562 "/>
<path style=" stroke:none;fill-rule:nonzero;fill:rgb(66.268921%,19.60907%,49.01886%);fill-opacity:1;" d="M 121.328125 59.351562 C 142.632812 55.847656 173.023438 61.804688 178.613281 87.742188 C 180.011719 95.101562 181.058594 102.460938 182.105469 109.820312 C 182.804688 115.78125 186.996094 115.78125 186.996094 115.78125 L 186.996094 154.683594 C 159.050781 154.683594 143.683594 142.765625 139.492188 125.242188 C 137.046875 114.027344 139.492188 102.460938 146.824219 93.347656 L 145.777344 92.296875 C 145.777344 92.296875 125.867188 108.417969 108.753906 93 C 94.082031 80.730469 90.589844 70.566406 90.589844 70.566406 C 100.019531 64.960938 110.5 61.105469 121.328125 59.351562 Z M 121.328125 59.351562 "/>
<path style=" stroke:none;fill-rule:nonzero;fill:rgb(54.899597%,29.40979%,53.729248%);fill-opacity:1;" d="M 313.441406 250.363281 C 316.9375 228.984375 310.996094 198.492188 285.148438 192.886719 C 277.8125 191.484375 270.480469 190.433594 263.144531 189.730469 C 257.207031 188.679688 257.207031 184.824219 257.207031 184.824219 L 218.433594 184.824219 C 218.433594 212.863281 230.308594 228.285156 247.773438 232.839844 C 258.953125 235.292969 270.480469 232.839844 279.5625 225.480469 L 280.609375 226.53125 C 280.609375 226.53125 264.539062 246.507812 279.910156 263.332031 C 292.136719 278.050781 302.265625 281.558594 302.265625 281.558594 C 307.855469 271.742188 311.695312 261.230469 313.441406 250.363281 Z M 313.441406 250.363281 "/>
<path style=" stroke:none;fill-rule:nonzero;fill:rgb(50.19989%,16.859436%,49.798584%);fill-opacity:1;" d="M 313.441406 118.933594 C 316.9375 140.3125 310.996094 171.15625 285.148438 176.414062 C 277.8125 177.816406 270.480469 178.867188 263.144531 179.566406 C 257.207031 180.269531 257.207031 184.472656 257.207031 184.472656 L 218.433594 184.472656 C 218.433594 156.433594 230.308594 141.015625 247.773438 136.457031 C 258.953125 134.003906 270.480469 136.457031 279.5625 143.816406 L 280.609375 142.765625 C 280.609375 142.765625 264.539062 122.789062 279.910156 105.964844 C 292.136719 91.246094 302.265625 87.742188 302.265625 87.742188 C 307.855469 97.554688 311.695312 108.070312 313.441406 118.933594 Z M 313.441406 118.933594 "/>
<path style=" stroke:none;fill-rule:nonzero;fill:rgb(59.609985%,63.529968%,82.348633%);fill-opacity:1;" d="M 122.027344 315.902344 C 143.332031 319.410156 174.070312 313.449219 179.3125 287.515625 C 180.707031 280.15625 181.757812 272.792969 182.453125 265.433594 C 183.503906 259.476562 187.34375 259.476562 187.34375 259.476562 L 187.34375 220.222656 C 159.402344 220.222656 144.03125 232.140625 139.839844 249.664062 C 137.394531 260.878906 139.839844 272.445312 147.175781 281.558594 L 146.128906 282.609375 C 146.128906 282.609375 126.21875 266.484375 109.449219 281.90625 C 94.78125 294.175781 91.289062 304.339844 91.289062 304.339844 C 100.71875 309.945312 110.847656 313.800781 122.027344 315.902344 Z M 122.027344 315.902344 "/>
<path style=" stroke:none;fill-rule:nonzero;fill:rgb(52.938843%,46.669006%,71.759033%);fill-opacity:1;" d="M 253.015625 315.902344 C 231.707031 319.410156 200.96875 313.449219 195.726562 287.515625 C 194.332031 280.15625 193.285156 272.792969 192.585938 265.433594 C 191.535156 259.476562 187.34375 259.476562 187.34375 259.476562 L 187.34375 220.222656 C 215.289062 220.222656 230.660156 232.140625 235.199219 249.664062 C 237.644531 260.878906 235.199219 272.445312 227.863281 281.558594 L 228.910156 282.609375 C 228.910156 282.609375 248.820312 266.484375 265.9375 281.90625 C 280.609375 294.175781 284.101562 304.339844 284.101562 304.339844 C 274.320312 309.945312 263.84375 313.800781 253.015625 315.902344 Z M 253.015625 315.902344 "/>
<path style=" stroke:none;fill-rule:nonzero;fill:rgb(46.669006%,79.219055%,72.549438%);fill-opacity:1;" d="M 60.898438 124.890625 C 57.40625 146.273438 63.34375 176.761719 89.191406 182.371094 C 96.527344 183.773438 103.863281 184.824219 111.199219 185.523438 C 117.136719 186.578125 117.136719 190.433594 117.136719 190.433594 L 156.257812 190.433594 C 156.257812 162.394531 144.382812 146.972656 126.914062 142.765625 C 115.738281 139.964844 104.210938 142.765625 95.128906 149.777344 L 94.082031 148.726562 C 94.082031 148.726562 110.148438 128.746094 94.78125 111.925781 C 82.554688 97.203125 72.425781 93.699219 72.425781 93.699219 C 66.488281 103.164062 62.644531 113.675781 60.898438 124.890625 Z M 60.898438 124.890625 "/>
<path style=" stroke:none;fill-rule:nonzero;fill:rgb(0%,71.369934%,83.139038%);fill-opacity:1;" d="M 60.898438 256.320312 C 57.40625 234.941406 63.34375 204.101562 89.191406 198.84375 C 96.527344 197.441406 103.863281 196.390625 111.199219 195.6875 C 117.136719 194.988281 117.136719 190.78125 117.136719 190.78125 L 156.257812 190.78125 C 156.257812 218.820312 144.382812 234.242188 126.914062 238.796875 C 115.738281 241.25 104.210938 238.796875 95.128906 231.4375 L 94.082031 232.488281 C 94.082031 232.488281 110.148438 252.46875 94.78125 269.289062 C 82.554688 284.011719 72.425781 287.515625 72.425781 287.515625 C 66.488281 277.703125 62.644531 267.1875 60.898438 256.320312 Z M 60.898438 256.320312 "/>
<path style=" stroke:none;fill-rule:nonzero;fill:rgb(76.078796%,26.269531%,52.938843%);fill-opacity:1;" d="M 252.664062 59.351562 C 231.355469 55.847656 200.617188 61.804688 195.378906 87.742188 C 193.980469 95.101562 192.933594 102.460938 192.234375 109.820312 C 191.1875 115.78125 186.996094 115.78125 186.996094 115.78125 L 186.996094 154.683594 C 214.941406 154.683594 230.308594 142.765625 234.851562 125.242188 C 237.296875 114.027344 234.851562 102.460938 227.515625 93.347656 L 228.5625 92.296875 C 228.5625 92.296875 248.472656 108.417969 265.238281 93 C 279.910156 80.730469 283.402344 70.917969 283.402344 70.917969 C 273.972656 64.960938 263.492188 61.105469 252.664062 59.351562 Z M 252.664062 59.351562 "/>
<path style=" stroke:none;fill-rule:nonzero;fill:rgb(66.268921%,19.60907%,49.01886%);fill-opacity:1;" d="M 121.328125 59.351562 C 142.632812 55.847656 173.023438 61.804688 178.613281 87.742188 C 180.011719 95.101562 181.058594 102.460938 182.105469 109.820312 C 182.804688 115.78125 186.996094 115.78125 186.996094 115.78125 L 186.996094 154.683594 C 159.050781 154.683594 143.683594 142.765625 139.492188 125.242188 C 137.046875 114.027344 139.492188 102.460938 146.824219 93.347656 L 145.777344 92.296875 C 145.777344 92.296875 125.867188 108.417969 108.753906 93 C 94.082031 80.730469 90.589844 70.566406 90.589844 70.566406 C 100.019531 64.960938 110.5 61.105469 121.328125 59.351562 Z M 121.328125 59.351562 "/>
<path style=" stroke:none;fill-rule:nonzero;fill:rgb(54.899597%,29.40979%,53.729248%);fill-opacity:1;" d="M 313.441406 250.363281 C 316.9375 228.984375 310.996094 198.492188 285.148438 192.886719 C 277.8125 191.484375 270.480469 190.433594 263.144531 189.730469 C 257.207031 188.679688 257.207031 184.824219 257.207031 184.824219 L 218.433594 184.824219 C 218.433594 212.863281 230.308594 228.285156 247.773438 232.839844 C 258.953125 235.292969 270.480469 232.839844 279.5625 225.480469 L 280.609375 226.53125 C 280.609375 226.53125 264.539062 246.507812 279.910156 263.332031 C 292.136719 278.050781 302.265625 281.558594 302.265625 281.558594 C 307.855469 271.742188 311.695312 261.230469 313.441406 250.363281 Z M 313.441406 250.363281 "/>
<path style=" stroke:none;fill-rule:nonzero;fill:rgb(50.19989%,16.859436%,49.798584%);fill-opacity:1;" d="M 313.441406 118.933594 C 316.9375 140.3125 310.996094 171.15625 285.148438 176.414062 C 277.8125 177.816406 270.480469 178.867188 263.144531 179.566406 C 257.207031 180.269531 257.207031 184.472656 257.207031 184.472656 L 218.433594 184.472656 C 218.433594 156.433594 230.308594 141.015625 247.773438 136.457031 C 258.953125 134.003906 270.480469 136.457031 279.5625 143.816406 L 280.609375 142.765625 C 280.609375 142.765625 264.539062 122.789062 279.910156 105.964844 C 292.136719 91.246094 302.265625 87.742188 302.265625 87.742188 C 307.855469 97.554688 311.695312 108.070312 313.441406 118.933594 Z M 313.441406 118.933594 "/>
<path style=" stroke:none;fill-rule:nonzero;fill:rgb(59.609985%,63.529968%,82.348633%);fill-opacity:1;" d="M 122.027344 315.902344 C 143.332031 319.410156 174.070312 313.449219 179.3125 287.515625 C 180.707031 280.15625 181.757812 272.792969 182.453125 265.433594 C 183.503906 259.476562 187.34375 259.476562 187.34375 259.476562 L 187.34375 220.222656 C 159.402344 220.222656 144.03125 232.140625 139.839844 249.664062 C 137.394531 260.878906 139.839844 272.445312 147.175781 281.558594 L 146.128906 282.609375 C 146.128906 282.609375 126.21875 266.484375 109.449219 281.90625 C 94.78125 294.175781 91.289062 304.339844 91.289062 304.339844 C 100.71875 309.945312 110.847656 313.800781 122.027344 315.902344 Z M 122.027344 315.902344 "/>
<path style=" stroke:none;fill-rule:nonzero;fill:rgb(52.938843%,46.669006%,71.759033%);fill-opacity:1;" d="M 253.015625 315.902344 C 231.707031 319.410156 200.96875 313.449219 195.726562 287.515625 C 194.332031 280.15625 193.285156 272.792969 192.585938 265.433594 C 191.535156 259.476562 187.34375 259.476562 187.34375 259.476562 L 187.34375 220.222656 C 215.289062 220.222656 230.660156 232.140625 235.199219 249.664062 C 237.644531 260.878906 235.199219 272.445312 227.863281 281.558594 L 228.910156 282.609375 C 228.910156 282.609375 248.820312 266.484375 265.9375 281.90625 C 280.609375 294.175781 284.101562 304.339844 284.101562 304.339844 C 274.320312 309.945312 263.84375 313.800781 253.015625 315.902344 Z M 253.015625 315.902344 "/>
<path style=" stroke:none;fill-rule:nonzero;fill:rgb(46.669006%,79.219055%,72.549438%);fill-opacity:1;" d="M 60.898438 124.890625 C 57.40625 146.273438 63.34375 176.761719 89.191406 182.371094 C 96.527344 183.773438 103.863281 184.824219 111.199219 185.523438 C 117.136719 186.578125 117.136719 190.433594 117.136719 190.433594 L 156.257812 190.433594 C 156.257812 162.394531 144.382812 146.972656 126.914062 142.765625 C 115.738281 139.964844 104.210938 142.765625 95.128906 149.777344 L 94.082031 148.726562 C 94.082031 148.726562 110.148438 128.746094 94.78125 111.925781 C 82.554688 97.203125 72.425781 93.699219 72.425781 93.699219 C 66.488281 103.164062 62.644531 113.675781 60.898438 124.890625 Z M 60.898438 124.890625 "/>
<path style=" stroke:none;fill-rule:nonzero;fill:rgb(0%,71.369934%,83.139038%);fill-opacity:1;" d="M 60.898438 256.320312 C 57.40625 234.941406 63.34375 204.101562 89.191406 198.84375 C 96.527344 197.441406 103.863281 196.390625 111.199219 195.6875 C 117.136719 194.988281 117.136719 190.78125 117.136719 190.78125 L 156.257812 190.78125 C 156.257812 218.820312 144.382812 234.242188 126.914062 238.796875 C 115.738281 241.25 104.210938 238.796875 95.128906 231.4375 L 94.082031 232.488281 C 94.082031 232.488281 110.148438 252.46875 94.78125 269.289062 C 82.554688 284.011719 72.425781 287.515625 72.425781 287.515625 C 66.488281 277.703125 62.644531 267.1875 60.898438 256.320312 Z M 60.898438 256.320312 "/>
</g>
</svg>
